<svg width="14" height="14" viewBox="0 0 14 14" fill="none" xmlns="http://www.w3.org/2000/svg">
<g id="target-03">
<path id="Icon" d="M12.8333 7H10.5M3.5 7H1.16667M7 3.5V1.16667M7 12.8333V10.5M11.6667 7C11.6667 9.57733 9.57733 11.6667 7 11.6667C4.42267 11.6667 2.33333 9.57733 2.33333 7C2.33333 4.42267 4.42267 2.33333 7 2.33333C9.57733 2.33333 11.6667 4.42267 11.6667 7ZM8.75 7C8.75 7.9665 7.9665 8.75 7 8.75C6.0335 8.75 5.25 7.9665 5.25 7C5.25 6.0335 6.0335 5.25 7 5.25C7.9665 5.25 8.75 6.0335 8.75 7Z" stroke="currentColor" stroke-width="1.4" stroke-linecap="round" stroke-linejoin="round"/>
</g>
</svg>
